o CircleBillboard
v 0.000000 0.000000 0.000000
v 0.000000 0.500000 0.000000
v 0.000000 0.483000 0.129400
v 0.000000 0.433000 0.250000
v 0.000000 0.353600 0.353600
v 0.000000 0.250000 0.433000
v 0.000000 0.129400 0.483000
v 0.000000 0.000000 0.500000
v 0.000000 -0.129400 0.483000
v 0.000000 -0.250000 0.433000
v 0.000000 -0.353600 0.353600
v 0.000000 -0.433000 0.250000
v 0.000000 -0.483000 0.129400
v 0.000000 -0.500000 0.000000
v 0.000000 -0.483000 -0.129400
v 0.000000 -0.433000 -0.250000
v 0.000000 -0.353600 -0.353600
v 0.000000 -0.250000 -0.433000
v 0.000000 -0.129400 -0.483000
v 0.000000 -0.000000 -0.500000
v 0.000000 0.129400 -0.483000
v 0.000000 0.250000 -0.433000
v 0.000000 0.353600 -0.353600
v 0.000000 0.433000 -0.250000
v 0.000000 0.483000 -0.129400
vn 1.0000 0.0000 0.0000
s 0
f 1//1 2//1 3//1
f 1//1 3//1 4//1
f 1//1 4//1 5//1
f 1//1 5//1 6//1
f 1//1 6//1 7//1
f 1//1 7//1 8//1
f 1//1 8//1 9//1
f 1//1 9//1 10//1
f 1//1 10//1 11//1
f 1//1 11//1 12//1
f 1//1 12//1 13//1
f 1//1 13//1 14//1
f 1//1 14//1 15//1
f 1//1 15//1 16//1
f 1//1 16//1 17//1
f 1//1 17//1 18//1
f 1//1 18//1 19//1
f 1//1 19//1 20//1
f 1//1 20//1 21//1
f 1//1 21//1 22//1
f 1//1 22//1 23//1
f 1//1 23//1 24//1
f 1//1 24//1 25//1
f 1//1 25//1 2//1
