o HollowCircleBillboard
v 0.000000 0.500000 0.000000
v 0.000000 0.483000 0.129400
v 0.000000 0.433000 0.250000
v 0.000000 0.353600 0.353600
v 0.000000 0.250000 0.433000
v 0.000000 0.129400 0.483000
v 0.000000 0.000000 0.500000
v 0.000000 -0.129400 0.483000
v 0.000000 -0.250000 0.433000
v 0.000000 -0.353600 0.353600
v 0.000000 -0.433000 0.250000
v 0.000000 -0.483000 0.129400
v 0.000000 -0.500000 0.000000
v 0.000000 -0.483000 -0.129400
v 0.000000 -0.433000 -0.250000
v 0.000000 -0.353600 -0.353600
v 0.000000 -0.250000 -0.433000
v 0.000000 -0.129400 -0.483000
v 0.000000 -0.000000 -0.500000
v 0.000000 0.129400 -0.483000
v 0.000000 0.250000 -0.433000
v 0.000000 0.353600 -0.353600
v 0.000000 0.433000 -0.250000
v 0.000000 0.483000 -0.129400
v 0.000000 0.320000 0.000000
v 0.000000 0.309120 0.082816
v 0.000000 0.277120 0.160000
v 0.000000 0.226304 0.226304
v 0.000000 0.160000 0.277120
v 0.000000 0.082816 0.309120
v 0.000000 0.000000 0.320000
v 0.000000 -0.082816 0.309120
v 0.000000 -0.160000 0.277120
v 0.000000 -0.226304 0.226304
v 0.000000 -0.277120 0.160000
v 0.000000 -0.309120 0.082816
v 0.000000 -0.320000 0.000000
v 0.000000 -0.309120 -0.082816
v 0.000000 -0.277120 -0.160000
v 0.000000 -0.226304 -0.226304
v 0.000000 -0.160000 -0.277120
v 0.000000 -0.082816 -0.309120
v 0.000000 -0.000000 -0.320000
v 0.000000 0.082816 -0.309120
v 0.000000 0.160000 -0.277120
v 0.000000 0.226304 -0.226304
v 0.000000 0.277120 -0.160000
v 0.000000 0.309120 -0.082816
vn 1.0000 0.0000 0.0000
s 0
f 25//1 1//1 2//1
f 25//1 2//1 26//1
f 26//1 2//1 3//1
f 26//1 3//1 27//1
f 27//1 3//1 4//1
f 27//1 4//1 28//1
f 28//1 4//1 5//1
f 28//1 5//1 29//1
f 29//1 5//1 6//1
f 29//1 6//1 30//1
f 30//1 6//1 7//1
f 30//1 7//1 31//1
f 31//1 7//1 8//1
f 31//1 8//1 32//1
f 32//1 8//1 9//1
f 32//1 9//1 33//1
f 33//1 9//1 10//1
f 33//1 10//1 34//1
f 34//1 10//1 11//1
f 34//1 11//1 35//1
f 35//1 11//1 12//1
f 35//1 12//1 36//1
f 36//1 12//1 13//1
f 36//1 13//1 37//1
f 37//1 13//1 14//1
f 37//1 14//1 38//1
f 38//1 14//1 15//1
f 38//1 15//1 39//1
f 39//1 15//1 16//1
f 39//1 16//1 40//1
f 40//1 16//1 17//1
f 40//1 17//1 41//1
f 41//1 17//1 18//1
f 41//1 18//1 42//1
f 42//1 18//1 19//1
f 42//1 19//1 43//1
f 43//1 19//1 20//1
f 43//1 20//1 44//1
f 44//1 20//1 21//1
f 44//1 21//1 45//1
f 45//1 21//1 22//1
f 45//1 22//1 46//1
f 46//1 22//1 23//1
f 46//1 23//1 47//1
f 47//1 23//1 24//1
f 47//1 24//1 48//1
f 48//1 24//1 1//1
f 48//1 1//1 25//1
